HIERARCHY
ROOT root
{
  OFFSET 70.785 87.0548 -53.2926
  CHANNELS 6 Xposition Yposition Zposition Zrotation Xrotation Yrotation
  JOINT lhipjoint
  {
    OFFSET 0 0 0
    CHANNELS 3 Zrotation Xrotation Yrotation
    JOINT lfemur
    {
      OFFSET 11.4745 -9.6688 -0.306662
      CHANNELS 3 Zrotation Xrotation Yrotation
      JOINT ltibia
      {
        OFFSET 0 -38.9476 0
        CHANNELS 3 Zrotation Xrotation Yrotation
        JOINT lfoot
        {
          OFFSET 0 -40.9204 0
          CHANNELS 3 Zrotation Xrotation Yrotation
          JOINT ltoes
          {
            OFFSET -1.2422 -17.1163 1.62186
            CHANNELS 3 Zrotation Xrotation Yrotation
            End Site
            {
              OFFSET -0.000383667 -1.60546 0.155658
            }
          }
        }
      }
    }
  }
  JOINT rhipjoint
  {
    OFFSET 0 0 0
    CHANNELS 3 Zrotation Xrotation Yrotation
    JOINT rfemur
    {
      OFFSET -11.2433 -9.6688 -0.306663
      CHANNELS 3 Zrotation Xrotation Yrotation
      JOINT rtibia
      {
        OFFSET 0 -38.7675 0
        CHANNELS 3 Zrotation Xrotation Yrotation
        JOINT rfoot
        {
          OFFSET 0 -41.5282 0
          CHANNELS 3 Zrotation Xrotation Yrotation
          JOINT rtoes
          {
            OFFSET 1.88681 -17.3568 1.41374
            CHANNELS 3 Zrotation Xrotation Yrotation
            End Site
            {
              OFFSET -4.2794e-005 -2.4878 -0.0189434
            }
          }
        }
      }
    }
  }
  JOINT lowerback
  {
    OFFSET 0 0 0
    CHANNELS 3 Zrotation Xrotation Yrotation
    JOINT upperback
    {
      OFFSET 0.294169 15.3138 2.56325
      CHANNELS 3 Zrotation Xrotation Yrotation
      JOINT thorax
      {
        OFFSET 0.014644 15.0218 2.10611
        CHANNELS 3 Zrotation Xrotation Yrotation
        JOINT lshoulderjoint
        {
          OFFSET -0.126523 16.0704 -0.102854
          CHANNELS 3 Zrotation Xrotation Yrotation
          JOINT lhumerus
          {
            OFFSET 14.7934 0 0
            CHANNELS 3 Zrotation Xrotation Yrotation
            JOINT lradius
            {
              OFFSET 0 -30.4825 0
              CHANNELS 3 Zrotation Xrotation Yrotation
              JOINT lhand
              {
                OFFSET 0 -21.2177 0
                CHANNELS 3 Zrotation Xrotation Yrotation
                End Site
                {
                  OFFSET 0 -9.18777 1.24932
                }
              }
            }
          }
        }
        JOINT rshoulderjoint
        {
          OFFSET -0.126523 16.0704 -0.102854
          CHANNELS 3 Zrotation Xrotation Yrotation
          JOINT rhumerus
          {
            OFFSET -14.4194 0 0
            CHANNELS 3 Zrotation Xrotation Yrotation
            JOINT rradius
            {
              OFFSET 0 -31.9519 0
              CHANNELS 3 Zrotation Xrotation Yrotation
              JOINT rhand
              {
                OFFSET 0 -23.442 0
                CHANNELS 3 Zrotation Xrotation Yrotation
                End Site
                {
                  OFFSET 0 -7.01689 1.24932
                }
              }
            }
          }
        }
        JOINT lowerneck
        {
          OFFSET -0.126523 16.0704 -0.102854
          CHANNELS 3 Zrotation Xrotation Yrotation
          JOINT upperneck
          {
            OFFSET 0.113407 8.41235 -3.1822
            CHANNELS 3 Zrotation Xrotation Yrotation
            JOINT head
            {
              OFFSET -0.254241 9.44511 0.746346
              CHANNELS 3 Zrotation Xrotation Yrotation
              End Site
              {
                OFFSET -0.118537 9.46566 0.57791
              }
            }
          }
        }
      }
    }
  }
}
MOTION
Frames:	10
Frame Time:	0.0333333
80.3711 85.9004 8.43431 -3.57158 10.5743 13.1839 -3.97569e-016 -1.59028e-015 -3.18055e-015 21.3183 -35.0858 14.7758 4.00203e-015 14.4819 -3.28493e-015 -66.3349 -77.5582 -66.5199 0.122342 -0.114415 0.0485142 -3.97569e-016 -1.59028e-015 -3.18055e-015 -12.839 0.0768554 -18.245 -3.74515e-015 22.5356 -8.60873e-016 -139.337 -63.8471 -137.413 -0.0405346 0.0621849 0.00508734 5.77741 -8.57826 6.37548 -0.24319 2.75025 7.85903 -3.45381 12.2523 4.34692 10.6603 0.330635 1.76237 6.4553 -27.4418 167.995 180 42.1962 -180 -32.3249 18.9179 107.489 -6.51317 -0.204806 1.78135 9.68589 -47.6085 -154.343 180 51.6111 -180 24.9733 -7.82088 -91.0517 0.462195 21.565 1.60773 -6.90292 13.7932 2.95598 -2.40756 1.05179 1.68762 
84.2601 85.7834 11.0582 0.417598 8.82898 10.12 -1.98785e-016 -3.18055e-015 -0 18.5539 -36.0195 19.7003 -1.38275e-015 28.0409 -7.20714e-015 -78.3689 -75.9672 -78.4919 0.00414013 -0.0769141 -0.0545289 -1.98785e-016 -3.18055e-015 -0 -19.0171 0.0202819 -13.5546 -1.25035e-015 29.6834 -6.86431e-016 -127.064 -61.7765 -124.953 -0.182814 0.0961474 -0.0135725 3.24387 -6.31631 6.78933 -4.87383 6.91909 9.42357 -4.93175 14.0687 5.12025 10.2077 0.383194 2.12866 2.42532 -37.482 163.365 -180 42.6814 180 -32.1662 19.2143 107.164 -8.21555 -0.308701 2.14067 20.1934 -41.4429 -151.01 -180 47.7349 180 28.8119 -5.07939 -91.2439 -3.59866 20.6302 2.33279 -1.88526 11.9297 2.69031 -0.113325 0.459611 1.32431 
87.1018 86.1909 13.4652 3.91232 7.27926 5.22924 -8.94531e-016 -3.18055e-015 -0 16.0367 -33.2264 22.9178 -2.15848e-015 34.1628 3.84382e-015 -94.9532 -77.1603 -95.1057 -0.0221017 -0.0230431 -0.00753294 -8.94531e-016 -3.18055e-015 -0 -22.7667 -6.16208 -11.5644 -5.46025e-015 41.933 1.06884e-015 -112.545 -56.349 -110.385 0.0144534 -0.0340122 -0.158084 0.737558 -5.20312 7.36712 -11.1674 10.0621 11.7083 -7.93571 16.7534 6.2774 9.02414 0.240538 1.46341 2.00111 -46.1184 161.767 -180 43.1035 180 -31.781 20.2813 107.507 -10.1637 -0.25739 1.46048 22.9589 -40.3435 -150.078 180 48.4615 -180 26.6416 -3.67483 -88.9375 -4.17821 21.8927 2.33066 1.25114 9.34114 2.28498 0.946912 -0.668322 1.04974 
88.3525 86.9828 15.0619 3.07383 7.36562 3.83601 6.95746e-016 0 -0 16.8331 -31.6663 24.4692 5.77297e-015 34.4079 3.85505e-015 -101.219 -76.7167 -101.357 0.0120507 -0.00621107 -0.0267744 6.95746e-016 0 -0 -21.3357 -13.2418 -19.6116 -4.70617e-015 50.0715 7.43316e-015 -107.876 -54.647 -105.79 0.243619 -0.129088 -0.0240703 -1.20226 -5.60533 6.24293 -13.2391 11.1664 10.9863 -8.32063 18.1533 5.75313 6.66233 0.0700812 0.65704 0.64455 -48.011 162.053 180 44.2325 -180 -29.778 20.0509 105.485 -11.2008 -0.128856 0.648047 20.639 -44.1986 -151.655 180 50.8279 -180 19.3626 -1.58951 -86.0064 -3.20976 20.4803 2.1166 1.40147 8.89088 2.20137 0.84907 -0.58308 1.01101 
88.7577 87.9974 16.4146 2.63655 7.65828 0.747205 -6.08778e-016 1.59028e-015 -1.98785e-016 17.5576 -28.9411 25.6831 4.06736e-015 32.5952 -7.5503e-015 -106.807 -78.4492 -106.96 -0.00945686 0.0107798 -0.00229891 -6.08778e-016 1.59028e-015 -1.98785e-016 -20.9025 -18.7435 -23.2695 -1.77332e-014 53.643 1.60955e-014 -115.055 -62.5106 -113.087 0.122679 -0.136929 -0.0279007 -2.81895 -6.25847 5.96735 -12.886 11.1087 10.8277 -6.16956 18.1619 5.23004 6.66273 0.144679 1.25629 -1.44025 -45.4952 160.441 180 44.4355 -180 -29.9458 19.8448 105.696 -10.4024 -0.230304 1.24345 22.4598 -45.9966 -149.177 180 49.5578 -180 22.4528 -2.64451 -88.2242 -2.57008 19.3472 2.21723 0.0623295 7.6705 2.45955 0.297923 -0.786483 1.18117 
88.8923 88.3936 17.6519 1.71983 6.47141 -1.88984 2.73329e-016 0 7.95139e-016 19.2497 -26.6225 26.0576 2.38542e-015 34.345 -0 -118.773 -79.5105 -118.75 0.00604074 0.0273108 0.00775962 2.73329e-016 0 7.95139e-016 -19.1811 -19.4687 -23.4906 -6.36111e-015 50.305 -0 -136.88 -69.1512 -135.085 -0.274806 0.066538 0.101053 -1.69078 -5.66789 6.17232 -10.4351 10.8677 10.3604 -4.96904 16.9498 5.02786 8.51029 0.127235 0.810833 -0.058472 -45.2658 160.561 -180 43.6899 180 -30.2022 19.9181 105.902 -8.93046 -0.123262 0.811519 23.6536 -45.9939 -145.989 -180 49.5547 180 25.1953 -1.87377 -89.29 -1.7138 20.1593 2.28048 -0.978571 8.39112 2.70575 -0.185502 -0.644863 1.34153 
88.6851 87.0014 18.5637 0.42885 5.03589 -3.54098 -9.93923e-017 0 -7.95139e-016 23.2254 -27.8626 27.2065 -2.95573e-015 42.9017 4.34192e-015 -136.339 -78.5237 -136.02 0.0209668 -0.0183488 -0.0120479 -9.93923e-017 0 -7.95139e-016 -16.5061 -19.3017 -21.1101 6.48701e-015 48.8621 -9.6692e-015 -137.592 -63.6203 -134.699 0.0496575 -0.0341512 0.0246859 1.4284 -4.67503 5.03174 -7.99292 10.7402 7.81086 -6.75783 15.9208 4.33948 12.3037 0.319482 1.46942 3.75209 -45.6502 165.159 -180 43.1171 180 -31.6858 20.0001 107.17 -5.80397 -0.153304 1.49588 22.0859 -46.6606 -144.556 180 52.3702 180 26.5922 -2.06024 -91.4946 0.626202 20.8458 2.81008 -3.14527 8.3845 3.85534 -1.34652 -0.679695 2.00776 
88.4738 84.4525 19.1233 -1.30127 3.81197 -4.18194 -9.93923e-017 0 1.59028e-015 27.9654 -30.9863 27.1031 -6.99889e-015 53.4765 1.06882e-014 -154.856 -76.1129 -154.368 -0.0114265 0.032015 -0.00235623 -9.93923e-017 0 1.59028e-015 -14.2287 -18.5162 -19.1745 -3.9869e-015 51.2613 -5.08263e-015 -142.414 -57.0481 -138.072 0.0101492 0.126487 -0.0187706 5.95351 -4.08182 3.62342 -4.91122 11.9677 4.74371 -9.54758 16.677 3.72544 15.0955 0.17804 0.683023 8.50507 -45.6045 172.203 180 44.109 -180 -32.9625 20.7549 108.705 -1.93904 -0.0325454 0.705021 22.5674 -48.9002 -141.317 -180 56.7272 180 24.7404 -3.17106 -90.747 4.14201 21.4205 2.45682 -8.69114 7.41014 4.12953 -3.62978 -0.856478 2.39287 
88.7895 83.1679 19.8998 -2.88034 2.7699 -4.87399 -3.31043e-032 1.19271e-015 1.59028e-015 30.2404 -32.8298 25.4323 0 60.4709 -0 -166.569 -75.8289 -166.257 -0.0205172 0.0620433 0.0207741 -3.31043e-032 1.19271e-015 1.59028e-015 -13.5285 -17.6167 -19.5096 3.47409e-015 53.3141 -5.32374e-015 -145.734 -56.2792 -141.34 0.020028 -0.0259927 -0.0182567 11.176 -3.26286 2.18963 -1.84666 14.0004 1.37741 -13.5516 17.2968 3.29913 18.802 -0.122048 -0.342805 6.89498 -39.2795 174.895 -180 44.0782 180 -33.3763 20.3743 109.334 2.86524 -0.0248366 -0.363018 25.7839 -48.611 -139.715 -180 57.4082 180 20.4446 -4.44204 -87.9965 6.55082 24.7968 1.92164 -13.1613 5.34119 3.88105 -5.47848 -1.87784 2.60709 
89.5003 83.7427 20.9087 -1.70555 3.68396 -8.06639 4.41391e-032 -7.95139e-016 3.18055e-015 31.168 -33.9628 28.3207 -1.73901e-015 64.4679 3.6896e-015 -163.31 -80.7381 -163.182 -0.0248298 0.0630185 0.012622 4.41391e-032 -7.95139e-016 3.18055e-015 -14.9468 -18.0965 -18.5721 -7.94366e-015 51.2858 5.08534e-015 -148.327 -58.2675 -144.655 0.00665572 -0.00441698 0.00785002 13.1752 -2.04621 2.17206 -1.82508 14.0835 1.14049 -15.7695 16.1759 3.4962 20.1048 -0.434749 -1.18834 4.58731 -30.9008 169.736 -180 41.7307 -180 -34.6508 20.8857 110.913 5.30388 -0.117061 -1.25991 26.8113 -43.8183 -143.32 -180 55.2141 180 21.3996 -6.34858 -87.0994 8.60311 28.1742 0.854482 -14.3917 4.69229 3.10518 -6.21797 -2.58435 2.43023 
